<svg width="513.85" height="3920.2" version="1.1" viewBox="0 0 135.96 1037.3" xmlns="http://www.w3.org/2000/svg" xmlns:xlink="http://www.w3.org/1999/xlink">
 <defs>
  <linearGradient id="linearGradient3848" x1="7003.2" x2="7498.4" y1="-1399.9" y2="-5549" gradientTransform="matrix(.26459 0 0 .26459 -1849.6 1407.7)" gradientUnits="userSpaceOnUse">
   <stop style="stop-color:#4755e9" offset="0"/>
   <stop style="stop-color:#3490d6" offset=".20222"/>
   <stop style="stop-color:#3dbae0" offset=".37923"/>
   <stop style="stop-color:#38c2c7" offset=".51889"/>
   <stop style="stop-color:#3de0c3" offset=".71631"/>
   <stop style="stop-color:#3cd699" offset=".91603"/>
   <stop style="stop-color:#fefefe;stop-opacity:.34902" offset="1"/>
  </linearGradient>
 </defs>
 <path d="m66.775 1.522e-5c-0.34889 0-0.68306 0.14089-0.92966 0.38757l-65.316 67.187c-0.51648 0.51661 67.187-65.316 67.187-65.316 0.5169-0.51669 0.5169-1.3545 0-1.8713-0.24959-0.24959-0.58866-0.38926-0.94157-0.38757zm7.3041 0.22532c-0.34889 0-0.68298 0.14076-0.92969 0.38757l-72.419 74.29c-0.5169 0.51661 74.29-72.419 74.29-72.419 0.5169-0.51672 0.5169-1.3546 0-1.8713-0.24951-0.24969-0.58858-0.38918-0.94157-0.38757zm-17.876 0.35915c-0.34889 0-0.68309 0.14087-0.92969 0.38757l-54.06 55.931c-0.5165 0.51661 55.931-54.06 55.931-54.06 0.5165-0.51658 0.5165-1.3541 0-1.8707-0.24948-0.24948-0.58824-0.38897-0.94104-0.38757zm26.821 0.6842c-0.34889 0-0.68296 0.14089-0.92966 0.3876l-25.487 27.358c-0.5165 0.51672 27.358-25.487 27.358-25.487 0.5165-0.51661 0.5165-1.3541 0-1.8707-0.24951-0.24951-0.58826-0.389-0.94106-0.3876zm-36.029 0.99427c-0.34881 0-0.68309 0.14089-0.92969 0.3876l-43.125 44.996c-0.5165 0.51658 44.996-43.125 44.996-43.125 0.5165-0.51661 0.5165-1.3541 0-1.8707-0.2494-0.24951-0.58816-0.389-0.94104-0.3876zm42.393 0.17055c-0.34889 0-0.68306 0.14087-0.92966 0.38757l-21.751 23.621c-0.5165 0.51661 23.621-21.751 23.621-21.751 0.5165-0.51658 0.5165-1.3541 0-1.8707-0.24951-0.24951-0.58826-0.38908-0.94106-0.38757zm7.8323 2.1555c-0.34891 0-0.68298 0.14089-0.92969 0.3876l-19.657 21.527c-0.5168 0.51672 21.527-19.657 21.527-19.657 0.5165-0.51661 0.5165-1.3541 0-1.8707-0.24948-0.24951-0.58824-0.38897-0.94104-0.3876zm5.467 2.063c-0.34881 0-0.68288 0.14047-0.92969 0.38707l-18.977 20.848c-0.51661 0.51669 20.848-18.977 20.848-18.977 0.5169-0.51672 0.5169-1.3545 0-1.8713-0.24949-0.2494-0.58834-0.38866-0.94104-0.38707zm-72.019 1.9493c-0.34881 0-0.68309 0.14079-0.92969 0.3876l-20.235 22.106c-0.51658 0.51658 22.106-20.235 22.106-20.235 0.5165-0.51661 0.5165-1.3541 0-1.8707-0.24948-0.24951-0.58813-0.3891-0.94104-0.3876zm78.947 1.11c-0.34889 0-0.68299 0.14089-0.92969 0.3876l-18.793 20.664c-0.5165 0.51661 20.664-18.793 20.664-18.793 0.5165-0.51661 0.5165-1.3541 0-1.8707-0.24962-0.24961-0.58858-0.38918-0.94157-0.3876zm2.2418 5.2877c-0.3488 0-0.68309 0.14089-0.92968 0.38757l-16.18 18.05c-0.5165 0.51661 18.051-16.18 18.051-16.18 0.51651-0.51661 0.51651-1.3541 0-1.8708-0.24958-0.24959-0.58855-0.38918-0.94154-0.38757zm0 9.9882c-0.3488 0-0.68309 0.14089-0.92968 0.38757l-10.218 12.089c-0.51658 0.51661 12.089-10.218 12.089-10.218 0.51651-0.51661 0.51651-1.3541 0-1.8708-0.24951-0.24948-0.58815-0.38897-0.94104-0.38757zm0 7.5294c-0.3488 0-0.68309 0.14089-0.92968 0.3876l-5.9915 7.8622c-0.5165 0.51661 7.8622-5.9915 7.8622-5.9915 0.51651-0.51672 0.51651-1.3541 0-1.8707-0.24951-0.24951-0.58815-0.389-0.94104-0.3876zm-72.712 12.631c-0.34889 0-0.68298 0.14087-0.92969 0.38757l-36.497 38.368c-0.5165 0.51658 38.368-36.497 38.368-36.497 0.51648-0.51658 0.51648-1.354 0-1.8707-0.24951-0.24951-0.58826-0.38908-0.94106-0.38757zm-3.2376 10.767c-0.34881 0-0.68309 0.14079-0.92969 0.3876l-31.954 33.825c-0.5165 0.51661 33.825-31.954 33.825-31.954 0.5165-0.51661 0.5165-1.3541 0-1.8707-0.24948-0.24951-0.58824-0.3891-0.94104-0.3876zm-0.86613 10.854c-0.34889 0-0.68296 0.14089-0.92966 0.38757l-28.687 30.557c-0.5165 0.51658 30.558-28.687 30.558-28.687 0.5165-0.51672 0.5165-1.3541 0-1.8708-0.24959-0.24959-0.58855-0.38916-0.94157-0.38757zm0.32248 7.207c-0.34891 0-0.68309 0.14079-0.92969 0.38757l-26.698 28.568c-0.5165 0.51658 28.568-26.698 28.568-26.698 0.5165-0.51658 0.5165-1.3541 0-1.8707-0.2494-0.24948-0.58824-0.38908-0.94104-0.38757zm1.4454 8.5423c-0.34891 0-0.68298 0.14089-0.92969 0.3876l-24.498 26.369c-0.5165 0.51661 26.369-24.498 26.369-24.498 0.5165-0.51661 0.5165-1.3541 0-1.8707-0.24961-0.24969-0.58858-0.38918-0.94157-0.3876zm1.9441 5.5858c-0.34878 0-0.68288 0.14055-0.92966 0.38707l-23.256 25.127c-0.5169 0.51669 25.127-23.255 25.127-23.255 0.5169-0.51658 0.5169-1.3545 0-1.8712-0.24951-0.24932-0.58826-0.38868-0.94106-0.38707zm3.5094 6.4783c-0.34899 0-0.68338 0.14079-0.93019 0.3876l-21.935 23.806c-0.51648 0.51661 23.806-21.935 23.806-21.935 0.51648-0.51661 0.51648-1.3541 0-1.8707-0.24951-0.24951-0.58826-0.389-0.94106-0.3876zm69.594 0.47494c-0.3488 0-0.68309 0.14087-0.92968 0.38757l-37.674 39.545c-0.5165 0.51672 39.545-37.674 39.545-37.674 0.51651-0.51669 0.51651-1.3541 0-1.8707-0.24951-0.24951-0.58815-0.38908-0.94104-0.38757zm-66.212 3.6722c-0.34881 0-0.68306 0.14087-0.92969 0.38757l-21.252 23.123c-0.5165 0.51661 23.123-21.252 23.123-21.252 0.51648-0.51658 0.51648-1.3541 0-1.8707-0.24951-0.24951-0.58826-0.38908-0.94106-0.38757zm49.238 3.3136c-0.34889 0-0.68298 0.14089-0.92969 0.38757l-30.795 32.665c-0.51658 0.51659 32.666-30.795 32.666-30.795 0.5165-0.51661 0.5165-1.3541 0-1.8708-0.24959-0.24959-0.58855-0.38916-0.94157-0.38757zm16.974 0.54365c-0.3488 0-0.68309 0.14087-0.92968 0.38757l-29.338 31.209c-0.5165 0.51659 31.209-29.338 31.209-29.338 0.51651-0.51658 0.51651-1.354 0-1.8707-0.24951-0.24948-0.58815-0.38908-0.94104-0.38757zm-60.754 0.67335c-0.34881 0-0.68288 0.14058-0.92969 0.38707l-20.706 22.576c-0.51648 0.51658 22.576-20.705 22.576-20.705 0.5168-0.51671 0.5168-1.3546 0-1.8712-0.24959-0.2493-0.58834-0.38866-0.94104-0.38707zm4.8644 2.6645c-0.34889 0-0.68296 0.1409-0.92966 0.3876l-20.603 22.474c-0.5165 0.51661 22.474-20.603 22.474-20.603 0.5165-0.51661 0.5165-1.3541 0-1.8707-0.24951-0.24951-0.58826-0.389-0.94106-0.3876zm25.747 1.7576c-0.34881 0-0.68309 0.14078-0.92969 0.38759l-24.65 26.521c-0.51661 0.51662 26.521-24.65 26.521-24.65 0.5165-0.51661 0.5165-1.3541 0-1.8707-0.24961-0.24972-0.58858-0.38918-0.94157-0.38759zm-18.031 0.5142c-0.34889 0-0.68296 0.14076-0.92966 0.38757l-21.09 22.961c-0.5169 0.51669 22.961-21.09 22.961-21.09 0.5165-0.51658 0.5165-1.3541 0-1.8707-0.2494-0.24959-0.58826-0.38908-0.94106-0.38757zm6.7713 0.7581c-0.34889 0-0.68296 0.14079-0.92966 0.38757l-21.93 23.802c-0.5168 0.51658 23.802-21.931 23.802-21.931 0.5165-0.51661 0.5165-1.3541 0-1.8708-0.24959-0.24969-0.58855-0.38916-0.94157-0.38757zm41.403 3.62c-0.3488 0-0.68309 0.1409-0.92968 0.3876l-16.142 18.013c-0.5169 0.51661 18.013-16.142 18.013-16.142 0.51651-0.51661 0.51651-1.3541 0-1.8707-0.24951-0.24951-0.58815-0.38908-0.94104-0.3876zm0 7.5294c-0.3488 0-0.68309 0.14087-0.92968 0.38757l-3.7962 5.667c-0.51651 0.51659 5.667-3.7962 5.667-3.7962 0.51651-0.51658 0.51651-1.3541 0-1.8707-0.24951-0.24951-0.58815-0.38897-0.94104-0.38757zm-44.703 31.427c-0.34198 0.01-0.66854 0.14536-0.91056 0.38706l-66.241 68.113c-0.51669 0.51661 68.112-66.242 68.112-66.242 0.5168-0.51661 0.5168-1.354 0-1.8707-0.2544-0.25411-0.60109-0.39407-0.9607-0.38706zm-7.762 0.23254c-0.34219 0.0101-0.66835 0.14622-0.91006 0.38861l-58.185 60.055c-0.5168 0.51661 60.057-58.186 60.057-58.186 0.5155-0.5164 0.5155-1.3527 0-1.8692-0.25411-0.25491-0.6013-0.39511-0.9612-0.38861zm17.215 0.30283c-0.34201 0.01-0.66804 0.14483-0.91006 0.38654l-75.221 77.094c-0.5168 0.51658 77.092-75.223 77.092-75.223 0.5168-0.51661 0.5168-1.3545 0-1.8712-0.2544-0.25409-0.60109-0.39355-0.9607-0.38654zm6.547 0.98239c-0.34198 0.0101-0.66854 0.14484-0.91056 0.38654l-22.553 24.424c-0.5168 0.51671 24.424-22.553 24.424-22.553 0.5168-0.51669 0.5168-1.3545 0-1.8712-0.2544-0.25409-0.6012-0.39363-0.9607-0.38654zm-35.373 0.34002c-0.34259 0.0101-0.6696 0.14447-0.91209 0.38657l-44.834 46.705c-0.5168 0.51661 46.705-44.834 46.705-44.834 0.5168-0.51659 0.5168-1.3545 0-1.8712-0.2539-0.25361-0.60022-0.39305-0.95914-0.38657zm43.353 1.6677c-0.3419 0.0101-0.66804 0.14536-0.91006 0.38707l-20.072 21.943c-0.5168 0.51672 21.943-20.072 21.943-20.072 0.5168-0.51672 0.5168-1.354 0-1.8707-0.25451-0.25422-0.6016-0.39419-0.9612-0.38707zm-54.221 1.6682c-0.3419 0.0101-0.66806 0.14484-0.91006 0.38654l-30.566 32.438c-0.5168 0.51661 32.438-30.566 32.438-30.566 0.5168-0.51661 0.5168-1.3546 0-1.8713-0.2544-0.25419-0.6016-0.39355-0.9612-0.38654zm59.715 0.36691c-0.34201 0.0101-0.66804 0.14526-0.91003 0.38707l-19.403 21.275c-0.5168 0.51669 21.275-19.404 21.275-19.404 0.51672-0.51661 0.51672-1.3541 0-1.8707-0.2544-0.25422-0.6016-0.39408-0.9612-0.38707zm6.6483 3.3399c-0.34261 0.0101-0.66962 0.14486-0.91212 0.38707l-19.328 21.201c-0.5168 0.51669 21.199-19.33 21.199-19.33 0.51679-0.51669 0.51679-1.354 0-1.8707-0.25401-0.25369-0.60025-0.39355-0.95914-0.38707zm4.5667 2.9632c-0.34198 0.01-0.66853 0.14483-0.91055 0.38653l-19.809 21.68c-0.5168 0.51669 21.678-19.809 21.678-19.809 0.51679-0.51672 0.51679-1.3546 0-1.8713-0.25401-0.25371-0.59972-0.39304-0.95864-0.38653zm5.4628 4.5254c-0.34201 0.0101-0.66857 0.14483-0.91056 0.38654l-20.915 22.786c-0.5155 0.51642 22.787-20.915 22.787-20.915 0.5168-0.51671 0.5168-1.3546 0-1.8712-0.2544-0.25411-0.6012-0.39366-0.96069-0.38654zm3.7244 3.8045c-0.34201 0.0101-0.66804 0.14473-0.91006 0.38654l-22.074 23.944c-0.51682 0.51658 23.943-22.073 23.943-22.073 0.5168-0.51671 0.5168-1.3545 0-1.8712-0.254-0.25369-0.60024-0.39305-0.95913-0.38654zm4.3869 5.5998c-0.34222 0.0101-0.66836 0.14624-0.91006 0.38863l-23.975 25.843c-0.5168 0.51672 25.846-23.973 25.846-23.973 0.51679-0.51669 0.51679-1.354 0-1.8707-0.25409-0.25491-0.60078-0.39522-0.96067-0.38863zm2.8888 4.6407c-0.34229 0.0101-0.66885 0.1461-0.91055 0.38863l-25.705 27.576c-0.5168 0.51669 27.576-25.705 27.576-25.705 0.51669-0.51661 0.51669-1.3541 0-1.8707-0.25411-0.25491-0.60088-0.39514-0.9607-0.38863zm3.2128 6.7754c-0.34201 0.0101-0.66857 0.14486-0.91056 0.38657l-28.339 30.211c-0.5168 0.51672 30.211-28.339 30.211-28.339 0.5168-0.51669 0.5168-1.3545 0-1.8712-0.2544-0.25412-0.6012-0.39366-0.96069-0.38657zm1.9607 5.5698c-0.34191 0.0101-0.66807 0.14536-0.91006 0.38706l-30.613 32.484c-0.5168 0.51669 32.485-30.613 32.485-30.613 0.51679-0.51669 0.51679-1.354 0-1.8707-0.25451-0.25419-0.6016-0.39415-0.9612-0.38706zm-92.336 4.7481c-0.34201 0.0101-0.66806 0.14537-0.91006 0.38707l-34.844 36.715c-0.51682 0.51661 36.715-34.844 36.715-34.844 0.51669-0.51658 0.51669-1.354 0-1.8707-0.2544-0.25411-0.60162-0.39405-0.9612-0.38707zm94.246 3.3286c-0.34222 0.0101-0.66886 0.14571-0.91056 0.3881l-34.752 36.621c-0.5168 0.51669 36.623-34.75 36.623-34.75 0.51682-0.51672 0.51682-1.3546 0-1.8713-0.25409-0.2548-0.60089-0.39471-0.96067-0.3881zm0.91365 6.6147c-0.3419 0.0101-0.66804 0.14537-0.91006 0.38707l-75.229 77.099c-0.5168 0.51659 77.1-75.229 77.1-75.229 0.5168-0.51661 0.5168-1.354 0-1.8707-0.2544-0.25411-0.6016-0.39408-0.9612-0.38707zm-97.455 2.34c-0.34291 0.0101-0.66991 0.14574-0.91212 0.38863l-30.635 32.506c-0.5168 0.51658 32.506-30.635 32.506-30.635 0.5168-0.51662 0.5168-1.3546 0-1.8713-0.25358-0.2543-0.5994-0.39453-0.95861-0.38863zm97.93 7.1739c-0.34198 0.0101-0.66803 0.14486-0.91003 0.38657l-66.242 68.114c-0.5168 0.51661 68.113-66.242 68.113-66.242 0.51679-0.51658 0.51679-1.3545 0-1.8712-0.2544-0.25412-0.6011-0.39355-0.9607-0.38657zm-98.266 0.69145c-0.3419 0.0101-0.66804 0.14486-0.91006 0.38654l-28.339 30.211c-0.5168 0.51659 30.211-28.34 30.211-28.34 0.5168-0.51661 0.5168-1.3545 0-1.8712-0.2544-0.25409-0.6016-0.39352-0.9612-0.38654zm97.975 7.1289c-0.3419 0.0101-0.66857 0.14483-0.91056 0.38653l-58.181 60.053c-0.5168 0.51661 60.052-58.182 60.052-58.182 0.51679-0.51661 0.51679-1.3546 0-1.8713-0.25441-0.25411-0.6011-0.39355-0.9607-0.38653zm-97.409 2.2909c-0.34219 0.0101-0.66833 0.14622-0.91003 0.38861l-25.695 27.566c-0.5168 0.51658 27.566-25.695 27.566-25.695 0.51682-0.51661 0.51682-1.3545 0-1.8712-0.25408-0.25491-0.6013-0.39512-0.9612-0.38861zm1.1426 6.3889c-0.3419 0.0101-0.66804 0.14483-0.91006 0.38654l-23.959 25.83c-0.5168 0.51661 25.83-23.959 25.83-23.959 0.5168-0.51661 0.5168-1.3546 0-1.8712-0.2544-0.25411-0.6016-0.39355-0.9612-0.38654zm94.514 3.0603c-0.342 0.0101-0.66806 0.14484-0.91005 0.38654l-44.81 46.682c-0.5168 0.51662 46.681-44.811 46.681-44.811 0.5168-0.51661 0.5168-1.3546 0-1.8713-0.2544-0.25411-0.60159-0.39355-0.9612-0.38654zm-92.019 4.4334c-0.34259 0.0101-0.6696 0.14497-0.91209 0.38707l-22.082 23.955c-0.5168 0.51661 23.953-22.084 23.953-22.084 0.5168-0.51661 0.5168-1.3546 0-1.8712-0.2539-0.25361-0.59972-0.39355-0.95863-0.38707zm2.5782 4.9512c-0.34201 0.0101-0.66856 0.14537-0.91056 0.38707l-20.953 22.824c-0.5168 0.51661 22.824-20.953 22.824-20.953 0.5168-0.51659 0.5168-1.354 0-1.8707-0.2544-0.25411-0.60109-0.39405-0.96067-0.38707zm86.008 1.5782c-0.342 0.0101-0.66803 0.14484-0.91005 0.38654l-30.511 32.382c-0.51539 0.5164 32.382-30.511 32.382-30.511 0.5168-0.51661 0.5168-1.3546 0-1.8712-0.2544-0.25411-0.60159-0.39355-0.9612-0.38654zm-81.646 4.0489c-0.34262 0.0101-0.66962 0.14444-0.91212 0.38654l-19.849 21.723c-0.5168 0.51661 21.721-19.851 21.721-19.851 0.5168-0.51662 0.5168-1.3545 0-1.8713-0.2539-0.25358-0.60025-0.39305-0.95914-0.38654zm4.1058 3.4221c-0.34222 0.0101-0.66888 0.14622-0.91056 0.38861l-19.39 21.261c-0.5155 0.51651 21.262-19.39 21.262-19.39 0.5168-0.51658 0.5168-1.354 0-1.8707-0.25408-0.2548-0.60078-0.39512-0.96067-0.38861zm6.7145 3.2753c-0.3419 0.01-0.66804 0.14483-0.91003 0.38654l-19.448 21.319c-0.51672 0.51661 21.32-19.447 21.32-19.447 0.5168-0.51661 0.5168-1.3545 0-1.8712-0.2544-0.25409-0.6016-0.39355-0.9612-0.38654zm16.62 0.89608c-0.34219 0.0101-0.66886 0.14674-0.91056 0.38913l-22.574 24.445c-0.5168 0.51659 24.445-22.574 24.445-22.574 0.51669-0.51658 0.51669-1.354 0-1.8707-0.25411-0.2548-0.6008-0.39564-0.9607-0.38913zm-10.457 0.46872c-0.34222 0.0101-0.66835 0.14674-0.91006 0.38913l-20.112 21.982c-0.5168 0.51658 21.984-20.111 21.984-20.111 0.5168-0.51661 0.5168-1.354 0-1.8707-0.25411-0.2549-0.60131-0.39564-0.9612-0.38913zm-51.724 32.674c-0.3423 0.0101-0.66886 0.14663-0.91056 0.38913l-3.1931 5.0644c-0.5168 0.51669 5.0644-3.1937 5.0644-3.1937 0.5168-0.51669 0.5168-1.354 0-1.8707-0.25411-0.25491-0.60088-0.39562-0.9607-0.38913zm9.9882 0c-0.3423 0.0101-0.66833 0.14663-0.91003 0.38913l-13.182 15.052c-0.5155 0.51643 15.053-13.181 15.053-13.181 0.5168-0.51669 0.5168-1.3541 0-1.8707-0.25411-0.25491-0.60088-0.39572-0.9607-0.38913zm7.5294 0c-0.3423 0.0101-0.66886 0.14663-0.91056 0.38913l-20.711 22.581c-0.5155 0.5164 22.582-20.71 22.582-20.71 0.51682-0.51669 0.51682-1.3541 0-1.8707-0.25408-0.25491-0.60088-0.39572-0.96067-0.38913zm9.9882 0c-0.34222 0.0101-0.66886 0.14663-0.91056 0.38913l-30.699 32.568c-0.5168 0.51669 32.57-30.698 32.57-30.698 0.51682-0.51669 0.51682-1.3541 0-1.8707-0.25408-0.25491-0.60078-0.39572-0.96067-0.38913zm7.5289 0c-0.34222 0.0101-0.66835 0.14663-0.91006 0.38913l-38.228 40.098c-0.5155 0.5164 40.1-38.227 40.1-38.227 0.5168-0.51669 0.5168-1.3541 0-1.8707-0.25411-0.25491-0.60131-0.39572-0.9612-0.38913zm62.541 0c-0.34298 0.0101-0.66988 0.14613-0.91209 0.38913l-14.076 15.947c-0.5168 0.51672 15.948-14.076 15.948-14.076 0.51682-0.51669 0.51682-1.3541 0-1.8707-0.25358-0.2544-0.59993-0.39514-0.95914-0.38913zm7.5294 0c-0.34302 0.0101-0.66992 0.14613-0.91212 0.38913l-21.606 23.476c-0.5168 0.51669 23.477-21.605 23.477-21.605 0.5168-0.51669 0.5168-1.3541 0-1.8707-0.25358-0.2544-0.5994-0.39514-0.9586-0.38913zm-17.518 3e-3c-0.3427 0.0101-0.6696 0.14487-0.91209 0.38707l-4.0882 5.959c-0.5168 0.51671 5.9595-4.0882 5.9595-4.0882 0.51682-0.51669 0.51682-1.3541 0-1.8707-0.2539-0.25369-0.60022-0.39355-0.95914-0.38707zm25.43 2.0744c-0.34259 0.01-0.6696 0.14433-0.9121 0.38653l-29.518 31.391c-0.5168 0.51671 31.389-29.52 31.389-29.52 0.5168-0.51672 0.5168-1.3546 0-1.8713-0.2539-0.25368-0.60022-0.39304-0.95913-0.38653zm-73.761 3.6934c-0.34262 0.01-0.66962 0.14433-0.91212 0.38654l-42.447 44.319c-0.51672 0.51661 44.318-42.447 44.318-42.447 0.5168-0.51671 0.5168-1.3546 0-1.8712-0.254-0.25369-0.59972-0.39316-0.95861-0.38654zm73.761 3.836c-0.34259 0.0101-0.6696 0.14436-0.9121 0.38654l-29.518 31.391c-0.5168 0.51672 31.389-29.519 31.389-29.519 0.5168-0.51669 0.5168-1.3546 0-1.8713-0.2539-0.25369-0.60022-0.39305-0.95913-0.38654zm-70.834 0.76329c-0.34198 0.0101-0.66804 0.14537-0.91003 0.38707l-45.377 47.247c-0.51672 0.51658 47.248-45.377 47.248-45.377 0.51682-0.51671 0.51682-1.3541 0-1.8707-0.25438-0.25422-0.6016-0.39419-0.9612-0.38707zm3.8846 6.1036c-0.34201 0.01-0.66806 0.14528-0.91006 0.38706l-49.262 51.132c-0.5168 0.51669 51.133-49.262 51.133-49.262 0.5168-0.51669 0.5168-1.3541 0-1.8707-0.2544-0.25419-0.6016-0.39415-0.9612-0.38706zm66.949 3.1213c-0.34199 0.01-0.66804 0.14476-0.91003 0.38654l-29.52 31.391c-0.5168 0.51671 31.389-29.519 31.389-29.519 0.5168-0.51669 0.5168-1.3546 0-1.8712-0.2539-0.25369-0.60022-0.39305-0.95913-0.38654zm-64.019 1.4806c-0.3419 0.0101-0.66856 0.14486-0.91056 0.38657l-20.461 22.33c-0.5168 0.51669 22.33-20.459 22.33-20.459 0.51682-0.51669 0.51682-1.3545 0-1.8712-0.25398-0.25372-0.59972-0.39308-0.95861-0.38657zm64.019 6.0484c-0.34199 0.0101-0.66804 0.14526-0.91003 0.38707l-29.52 31.391c-0.5168 0.51669 31.389-29.52 31.389-29.52 0.51672-0.51669 0.51672-1.3541 0-1.8707-0.2539-0.25371-0.60022-0.39357-0.95913-0.38707zm-60.135 0.0532c-0.34198 0.01-0.66804 0.14484-0.91003 0.38654l-20.529 22.4c-0.5168 0.51669 22.4-20.529 22.4-20.529 0.5168-0.51671 0.5168-1.3546 0-1.8712-0.2544-0.25419-0.60109-0.39366-0.9607-0.38654zm2.9275 4.6014c-0.34201 0.0101-0.66804 0.14475-0.91006 0.38653l-20.58 22.451c-0.5168 0.51672 22.451-20.58 22.451-20.58 0.51669-0.51669 0.51669-1.3546 0-1.8713-0.2544-0.25419-0.6016-0.39362-0.9612-0.38653zm57.207 5.3341c-0.34259 0.0101-0.6696 0.14436-0.9121 0.38657l-29.518 31.391c-0.5168 0.51669 31.389-29.519 31.389-29.519 0.5168-0.51669 0.5168-1.3545 0-1.8712-0.2539-0.25361-0.60022-0.39305-0.95913-0.38657zm-53.322 0.76742c-0.3423 0.01-0.66886 0.14613-0.91056 0.38863l-20.648 22.519c-0.51669 0.51662 22.52-20.648 22.52-20.648 0.51682-0.51672 0.51682-1.3547 0-1.8712-0.25408-0.25491-0.60088-0.39522-0.96067-0.38863zm2.9296 4.6014c-0.34198 0.0101-0.66854 0.14537-0.91056 0.38704l-20.701 22.572c-0.51682 0.51669 22.572-20.702 22.572-20.702 0.5168-0.51671 0.5168-1.3541 0-1.8708-0.2544-0.25419-0.60109-0.39416-0.9607-0.38704zm-36.299 1.264c-0.34201 0.0101-0.66804 0.14484-0.91006 0.38654l-29.52 31.39c-0.5168 0.51672 31.391-29.519 31.391-29.519 0.5168-0.51669 0.5168-1.3546 0-1.8713-0.2544-0.25419-0.60109-0.39363-0.9607-0.38654zm86.691 0.89609c-0.34259 0.01-0.6696 0.14486-0.9121 0.38706l-51.011 52.883c-0.5168 0.51669 52.883-51.012 52.883-51.012 0.5168-0.51669 0.5168-1.3541 0-1.8707-0.2539-0.25368-0.60022-0.39355-0.95913-0.38706zm-46.508 3.9435c-0.34201 0.0101-0.66804 0.14486-0.91006 0.38656l-20.77 22.641c-0.5168 0.51669 22.641-20.77 22.641-20.77 0.5168-0.51669 0.5168-1.3546 0-1.8712-0.2544-0.25422-0.6016-0.39366-0.9612-0.38656zm2.9296 4.5998c-0.34288 0.0101-0.66989 0.14571-0.91209 0.3886l-20.82 22.691c-0.5168 0.51669 22.691-20.822 22.691-20.822 0.51542-0.5165 0.51542-1.3528 0-1.8692-0.25358-0.2544-0.59993-0.39461-0.95914-0.3886zm-43.113 0.54881c-0.34201 0.0101-0.66804 0.14483-0.91006 0.38654l-29.52 31.39c-0.5168 0.51671 31.391-29.519 31.391-29.519 0.5168-0.51669 0.5168-1.3546 0-1.8712-0.2544-0.25419-0.60109-0.39363-0.9607-0.38654zm86.691 0.89455c-0.3423 0.01-0.66833 0.1461-0.91003 0.3886l-47.197 49.066c-0.51682 0.51669 49.068-47.196 49.068-47.196 0.51682-0.51669 0.51682-1.3541 0-1.8707-0.25409-0.2549-0.60139-0.39522-0.9612-0.3886zm-39.693 4.6598c-0.34198 0.0101-0.66854 0.14537-0.91056 0.38707l-20.89 22.76c-0.5155 0.51647 22.759-20.89 22.759-20.89 0.5168-0.51669 0.5168-1.3541 0-1.8707-0.254-0.25372-0.59972-0.39368-0.95863-0.38707zm-46.998 1.9746c-0.34201 0.0101-0.66804 0.14537-0.91006 0.38707l-29.52 31.39c-0.5168 0.51672 31.391-29.52 31.391-29.52 0.5168-0.51672 0.5168-1.3542 0-1.8707-0.2544-0.25422-0.60109-0.39418-0.9607-0.38707zm86.691 0.89662c-0.34199 0.01-0.66804 0.14536-0.91003 0.38704l-44.32 46.189c-0.5168 0.51669 46.191-44.318 46.191-44.318 0.51682-0.51672 0.51682-1.3541 0-1.8708-0.25441-0.25419-0.6016-0.39416-0.9612-0.38704zm-36.766 1.7286c-0.34219 0.0101-0.66835 0.14611-0.91006 0.3886l-20.941 22.81c-0.51682 0.51672 22.812-20.939 22.812-20.939 0.5168-0.51672 0.5168-1.3546 0-1.8713-0.25411-0.2549-0.6008-0.39521-0.9607-0.3886zm3.8846 6.1036c-0.34198 0.0101-0.66804 0.14486-0.91003 0.38656l-21.01 22.881c-0.5168 0.51671 22.881-21.01 22.881-21.01 0.5168-0.51669 0.5168-1.3546 0-1.8712-0.2544-0.25422-0.60162-0.39365-0.96123-0.38656zm-53.81 1.2599c-0.34201 0.0101-0.66804 0.14486-0.91006 0.38657l-29.52 31.39c-0.5168 0.51672 31.391-29.519 31.391-29.519 0.5168-0.51669 0.5168-1.3546 0-1.8712-0.2544-0.25422-0.60109-0.39366-0.9607-0.38657zm86.691 0.89402c-0.3423 0.0101-0.66833 0.14664-0.91003 0.38913l-40.504 42.373c-0.5168 0.51667 42.373-40.502 42.373-40.502 0.5168-0.51672 0.5168-1.3542 0-1.8708-0.25358-0.25437-0.59993-0.39511-0.95913-0.38913zm-86.691 6.6349c-0.34201 0.01-0.66804 0.14536-0.91006 0.38706l-29.52 31.39c-0.5168 0.51669 31.391-29.52 31.391-29.52 0.5168-0.51669 0.5168-1.3541 0-1.8707-0.2544-0.25419-0.60109-0.39415-0.9607-0.38706zm86.691 0.89455c-0.34288 0.0101-0.66992 0.14571-0.9121 0.3886l-37.625 39.496c-0.5168 0.51663 39.496-37.625 39.496-37.625 0.5168-0.51671 0.5168-1.3546 0-1.8712-0.25358-0.2544-0.59993-0.39461-0.95913-0.3886zm-86.691 9.0937c-0.34201 0.0101-0.66804 0.14537-0.91006 0.38707l-29.52 31.39c-0.5168 0.51666 31.391-29.52 31.391-29.52 0.5168-0.51669 0.5168-1.3541 0-1.8707-0.2544-0.25419-0.60109-0.39416-0.9607-0.38707zm86.691 0.89455c-0.34288 0.0101-0.66992 0.14571-0.9121 0.3886l-33.809 35.68c-0.5168 0.51667 35.68-33.808 35.68-33.808 0.5168-0.51672 0.5168-1.3546 0-1.8713-0.25358-0.2544-0.59993-0.3946-0.95913-0.3886zm-86.691 6.6349c-0.34201 0.0101-0.66804 0.14486-0.91006 0.38656l-29.52 31.391c-0.5168 0.51666 31.391-29.52 31.391-29.52 0.5168-0.51669 0.5168-1.3546 0-1.8712-0.2544-0.25421-0.60109-0.39365-0.9607-0.38656zm86.691 0.89455c-0.34288 0.01-0.66992 0.14571-0.9121 0.38863l-30.697 32.568c-0.5168 0.51666 32.568-30.697 32.568-30.697 0.5168-0.51669 0.5168-1.3546 0-1.8712-0.25358-0.2544-0.59993-0.39464-0.95913-0.38863zm-86.691 9.0937c-0.34201 0.01-0.66804 0.14528-0.91006 0.38706l-21.607 23.476c-0.5168 0.51666 23.478-21.605 23.478-21.605 0.5168-0.51669 0.5168-1.3541 0-1.8707-0.2544-0.25419-0.60109-0.39416-0.9607-0.38706zm86.691 0.89455c-0.34199 0.01-0.66804 0.14483-0.91003 0.38653l-20.711 22.582c-0.5168 0.51666 22.582-20.711 22.582-20.711 0.51682-0.51669 0.51682-1.3546 0-1.8713-0.25441-0.25419-0.6016-0.39363-0.9612-0.38653zm-86.691 6.6349c-0.34201 0.0101-0.66804 0.14478-0.91006 0.38654l-14.079 15.947c-0.51682 0.51666 15.949-14.076 15.949-14.076 0.5168-0.51666 0.5168-1.3546 0-1.8712-0.2544-0.25417-0.60109-0.39366-0.9607-0.38654zm86.691 0.89452c-0.34199 6e-3 -0.66804 0.14484-0.91003 0.38657l-13.181 15.053c-0.51679 0.51666 15.051-13.181 15.051-13.181 0.5168-0.51664 0.5168-1.3546 0-1.8712-0.2539-0.25364-0.60022-0.39308-0.95913-0.38657zm-86.691 9.0937c-0.34201 6e-3 -0.66804 0.14481-0.91006 0.38654l-4.0898 5.959c-0.5168 0.51666 5.9605-4.0877 5.9605-4.0877 0.5168-0.51667 0.5168-1.3546 0-1.8713-0.2544-0.25413-0.60109-0.3936-0.9607-0.38654zm86.691 0.89453c-0.34259 0.0101-0.6696 0.14436-0.9121 0.38656l-3.1932 5.0644c-0.51679 0.51669 5.0644-3.1932 5.0644-3.1932 0.5168-0.51669 0.5168-1.3545 0-1.8712-0.2539-0.25361-0.60022-0.39304-0.95913-0.38656zm-111.96 32.337c-0.34881 3e-3 -0.68309 0.14087-0.92969 0.3876l-1.463 3.3348c-0.5168 0.51669 3.3342-1.4635 3.3342-1.4635 0.51682-0.51669 0.51682-1.3545 0-1.8712-0.24959-0.24964-0.58855-0.38918-0.94154-0.3876zm9.9882 0c-0.34891 3e-3 -0.68298 0.14087-0.92969 0.3876l-11.452 13.322c-0.5165 0.51664 13.322-11.452 13.322-11.452 0.5165-0.51661 0.5165-1.3541 0-1.8707-0.2494-0.24951-0.58826-0.38905-0.94104-0.3876zm7.5294 0c-0.34891 3e-3 -0.68298 0.14087-0.92969 0.3876l-18.981 20.852c-0.5165 0.51664 20.852-18.981 20.852-18.981 0.5165-0.51661 0.5165-1.3541 0-1.8707-0.24948-0.24951-0.58824-0.38905-0.94104-0.3876zm9.9877 0c-0.34889 3e-3 -0.68298 0.14087-0.92966 0.3876l-23.982 25.853c-0.5165 0.51663 25.853-23.982 25.853-23.982 0.5165-0.51661 0.5165-1.3541 0-1.8707-0.24959-0.24964-0.58855-0.38918-0.94157-0.3876zm7.5299 0c-0.34899 0-0.68338 0.14042-0.93019 0.38707l-23.982 25.853c-0.51658 0.51663 25.853-23.982 25.853-23.982 0.51688-0.51669 0.51688-1.3546 0-1.8713-0.24951-0.24932-0.58837-0.38865-0.94106-0.38707zm9.9872 0c-0.34889 3e-3 -0.68298 0.14087-0.92969 0.3876l-23.982 25.853c-0.5169 0.51666 25.853-23.982 25.853-23.982 0.5169-0.51669 0.5169-1.3545 0-1.8712-0.24938-0.24951-0.58824-0.38905-0.94104-0.3876zm7.5294 0c-0.34889 3e-3 -0.68296 0.14087-0.92966 0.3876l-23.982 25.853c-0.5165 0.51663 25.853-23.982 25.853-23.982 0.5168-0.51669 0.5168-1.3545 0-1.8712-0.24951-0.24951-0.58826-0.38905-0.94106-0.3876zm9.9882 0c-0.34889 3e-3 -0.68306 0.14087-0.92966 0.3876l-23.982 25.853c-0.51661 0.51663 25.853-23.982 25.853-23.982 0.5165-0.51661 0.5165-1.3541 0-1.8707-0.2494-0.24951-0.58826-0.38905-0.94106-0.3876zm7.5294 0c-0.34891 3e-3 -0.68298 0.14087-0.92969 0.3876l-31.302 33.173c-0.51661 0.51664 33.173-31.302 33.173-31.302 0.5165-0.51661 0.5165-1.3541 0-1.8707-0.2494-0.24951-0.58824-0.38905-0.94104-0.3876zm9.9877 0c-0.34881 3e-3 -0.68288 0.14053-0.92969 0.38707l-41.29 43.162c-0.5169 0.51669 43.161-41.29 43.161-41.29 0.5168-0.51669 0.5168-1.3546 0-1.8713-0.24969-0.24945-0.58866-0.38881-0.94157-0.38707zm7.5294 0c-0.34878 3e-3 -0.68288 0.14053-0.92966 0.38707l-48.819 50.691c-0.51661 0.51664 50.691-48.819 50.691-48.819 0.51683-0.51669 0.51683-1.3546 0-1.8713-0.24969-0.24945-0.58866-0.38881-0.94156-0.38707zm9.9877 0c-0.34892 3e-3 -0.68299 0.14087-0.92969 0.3876l-23.982 25.853c-0.5169 0.51669 25.853-23.983 25.853-23.983 0.5165-0.51661 0.5165-1.3541 0-1.8707-0.24941-0.24951-0.58824-0.38905-0.94104-0.3876zm7.5294 0c-0.34889 3e-3 -0.68299 0.14087-0.92966 0.3876l-23.982 25.853c-0.5165 0.51661 25.853-23.982 25.853-23.982 0.51648-0.51661 0.51648-1.3541 0-1.8707-0.2494-0.24951-0.58826-0.38905-0.94106-0.3876zm6.1822 3.8061c-0.34891 3e-3 -0.68298 0.14089-0.92968 0.38757l-20.176 22.047c-0.5165 0.51661 22.047-20.176 22.047-20.176 0.51651-0.51661 0.51651-1.3541 0-1.8708-0.2494-0.24951-0.58826-0.38903-0.94104-0.38757zm0 7.5294c-0.3491 3e-3 -0.6834 0.1407-0.93021 0.38759l-12.646 14.517c-0.51651 0.51661 14.517-12.647 14.517-12.647 0.51651-0.51661 0.51651-1.3541 0-1.8707-0.2494-0.2495-0.58826-0.38905-0.94104-0.38759zm0 9.9877c-0.3488 3e-3 -0.68287 0.14052-0.92968 0.38707l-2.6588 4.5301c-0.51682 0.51669 4.5295-2.6588 4.5295-2.6588 0.5169-0.51668 0.5169-1.3545 0-1.8712-0.24951-0.24933-0.58834-0.38866-0.94104-0.38707zm-40.231 5.1962c-0.34891 3e-3 -0.68298 0.14087-0.92969 0.3876l-32.288 34.159c-0.5165 0.51661 34.158-32.288 34.158-32.288 0.5165-0.51661 0.5165-1.3541 0-1.8707-0.2494-0.24951-0.58824-0.38903-0.94104-0.3876zm0 7.5294c-0.34891 3e-3 -0.68298 0.14084-0.92969 0.38757l-32.288 34.159c-0.5165 0.51663 34.158-32.288 34.158-32.288 0.5165-0.51661 0.5165-1.3541 0-1.8707-0.2494-0.24951-0.58824-0.38903-0.94104-0.38757zm0 9.9882c-0.34891 3e-3 -0.68298 0.14087-0.92969 0.38757l-32.288 34.158c-0.5169 0.51667 34.158-32.288 34.158-32.288 0.5165-0.51661 0.5165-1.3541 0-1.8707-0.2494-0.24948-0.58824-0.38902-0.94104-0.38757zm0 7.5294c-0.3491 3e-3 -0.68341 0.14073-0.93019 0.3876l-32.287 34.158c-0.5169 0.51663 34.158-32.288 34.158-32.288 0.51661-0.51661 0.51661-1.3541 0-1.8707-0.2494-0.24954-0.58824-0.38906-0.94104-0.3876zm0 9.9877c-0.34891 3e-3 -0.68298 0.14084-0.92969 0.38757l-32.288 34.158c-0.51661 0.51661 34.158-32.288 34.158-32.288 0.5165-0.51661 0.5165-1.3541 0-1.8707-0.2494-0.24951-0.58824-0.38905-0.94104-0.38757zm0 7.5294c-0.34891 3e-3 -0.68298 0.14084-0.92969 0.38757l-32.288 34.158c-0.51661 0.51666 34.158-32.288 34.158-32.288 0.5165-0.51661 0.5165-1.3541 0-1.8707-0.2494-0.24951-0.58824-0.38903-0.94104-0.38757zm0 9.9877c-0.34891 3e-3 -0.68298 0.14086-0.92969 0.38759l-32.288 34.159c-0.5169 0.51669 34.158-32.288 34.158-32.288 0.5165-0.51661 0.5165-1.3541 0-1.8707-0.2494-0.2495-0.58824-0.38905-0.94104-0.38759zm0 7.5299c-0.34899 0-0.6833 0.14039-0.93019 0.38707l-32.287 34.159c-0.5169 0.51669 34.158-32.288 34.158-32.288 0.5169-0.51669 0.5169-1.3546 0-1.8713-0.24951-0.24932-0.58834-0.38865-0.94104-0.38707zm0 9.9872c-0.34891 3e-3 -0.68298 0.14086-0.92969 0.38759l-31.302 33.173c-0.5169 0.51669 33.172-31.302 33.172-31.302 0.5169-0.51669 0.5169-1.3545 0-1.8712-0.2494-0.24953-0.58824-0.38905-0.94104-0.38759zm0 7.5294c-0.34891 3e-3 -0.68298 0.14087-0.92969 0.3876l-23.772 25.643c-0.5165 0.51661 25.643-23.772 25.643-23.772 0.5165-0.51661 0.5165-1.3541 0-1.8707-0.2494-0.24951-0.58824-0.38905-0.94104-0.3876zm0 9.9882c-0.3491 3e-3 -0.68341 0.14073-0.93019 0.3876l-13.783 15.655c-0.51661 0.51661 15.655-13.784 15.655-13.784 0.5165-0.51661 0.5165-1.3541 0-1.8707-0.2494-0.24951-0.58824-0.38903-0.94104-0.3876zm0 7.5294c-0.3491 3e-3 -0.68341 0.14071-0.93019 0.38757l-6.254 8.1253c-0.51658 0.51661 8.1253-6.2546 8.1253-6.2546 0.5165-0.51661 0.5165-1.3541 0-1.8707-0.2494-0.2495-0.58824-0.38902-0.94104-0.38757zm-23.267 22.692c-0.34198 6e-3 -0.66804 0.14484-0.91003 0.38654l-14.446 16.317c-0.5168 0.51667 16.316-14.445 16.316-14.445 0.5168-0.51666 0.5168-1.3546 0-1.8712-0.25398-0.25366-0.60022-0.39307-0.95914-0.38654zm7.5294 0c-0.34201 6e-3 -0.66856 0.14484-0.91056 0.38654l-26.386 28.256c-0.51669 0.51666 28.257-26.385 28.257-26.385 0.5168-0.51666 0.5168-1.3546 0-1.8712-0.2544-0.25414-0.60107-0.39361-0.96067-0.38654zm9.9882 0c-0.34262 6e-3 -0.66962 0.14439-0.91212 0.38654l-42.223 44.094c-0.5168 0.51666 44.093-42.223 44.093-42.223 0.5168-0.51666 0.5168-1.3546 0-1.8712-0.25401-0.25366-0.59972-0.39307-0.95861-0.38654zm7.5289 0c-0.34259 6e-3 -0.66909 0.14439-0.91159 0.38654l-54.162 56.034c-0.5168 0.51667 56.033-54.162 56.033-54.162 0.51682-0.51666 0.51682-1.3546 0-1.8712-0.25398-0.25366-0.60022-0.39307-0.95914-0.38654zm5.2463 4.7424c-0.34201 6e-3 -0.66806 0.14483-0.91006 0.38656l-65.26 67.129c-0.5168 0.51666 67.131-65.257 67.131-65.257 0.5168-0.51666 0.5168-1.3546 0-1.8712-0.2544-0.25414-0.60107-0.3936-0.96067-0.38656zm2.0314 5.498c-0.34259 0.01-0.66962 0.14436-0.91212 0.38656l-21.803 23.637c-0.25255-0.24241-0.5908-0.37635-0.94157-0.36947-0.34201 6e-3 -0.66804 0.14534-0.91006 0.38704l-48.045 49.916c-0.51682 0.51666 49.916-48.045 49.916-48.045 0.51016-0.51 0.51563-1.3325 0.01852-1.8506 1.0875-0.96958 23.635-21.804 23.635-21.804 0.51682-0.51669 0.51682-1.3545 0-1.8712-0.25398-0.25371-0.59972-0.39305-0.95861-0.38656zm2.6934 7.2927c-0.3423 7e-3 -0.66886 0.14618-0.91056 0.38863l-22.388 24.26c-0.5168 0.51666 24.26-22.389 24.26-22.389 0.51682-0.51667 0.51682-1.3546 0-1.8712-0.25408-0.25488-0.60088-0.39517-0.96067-0.38863zm2.0309 5.498c-0.34222 7e-3 -0.66835 0.14621-0.91005 0.38863l-22.498 24.369c-0.5168 0.51666 24.369-22.498 24.369-22.498 0.5168-0.51667 0.5168-1.3546 0-1.8712-0.25411-0.25491-0.6013-0.39519-0.9612-0.38863zm2.6934 7.2948c-0.34201 6e-3 -0.66806 0.14533-0.91006 0.38706l-22.643 24.514c-0.5168 0.51664 24.513-22.643 24.513-22.643 0.5168-0.51666 0.5168-1.3541 0-1.8707-0.2544-0.25414-0.60117-0.3941-0.96067-0.38706zm2.0314 5.4985c-0.3419 6e-3 -0.66857 0.14484-0.91056 0.38654l-22.752 24.623c-0.5168 0.51664 24.623-22.752 24.623-22.752 0.51679-0.51667 0.51679-1.3546 0-1.8713-0.25441-0.25416-0.6011-0.39363-0.9607-0.38654zm2.6929 7.2948c-0.34198 6e-3 -0.66804 0.14484-0.91003 0.38654l-22.896 24.768c-0.5168 0.51667 24.768-22.896 24.768-22.896 0.51682-0.51666 0.51682-1.3546 0-1.8712-0.2544-0.25414-0.6017-0.3936-0.9612-0.38654zm2.0335 5.4959c-0.34291 6e-3 -0.66992 0.14571-0.91212 0.3886l-23.006 24.877c-0.5168 0.51666 24.877-23.006 24.877-23.006 0.5168-0.51666 0.5168-1.3546 0-1.8712-0.25361-0.25438-0.59995-0.39464-0.95913-0.3886zm-43.039 0.47491c-0.3419 6e-3 -0.66804 0.14483-0.91003 0.38654l-48.688 50.56c-0.5168 0.51666 50.559-48.689 50.559-48.689 0.5168-0.51666 0.5168-1.3546 0-1.8712-0.2544-0.25417-0.6016-0.39363-0.9612-0.38654zm45.733 6.8199c-0.34201 6e-3 -0.66857 0.14534-0.91056 0.38707l-45.937 47.808c-0.51682 0.51666 47.806-45.938 47.806-45.938 0.5168-0.51667 0.5168-1.3541 0-1.8707-0.2539-0.25363-0.59972-0.39358-0.9586-0.38707zm-49.659 4.635c-0.34201 6e-3 -0.66804 0.14481-0.91003 0.38654l-49.172 51.045c-0.5168 0.51666 51.043-49.174 51.043-49.174 0.5168-0.51667 0.5168-1.3546 0-1.8713-0.2544-0.25414-0.6016-0.3936-0.9612-0.38654zm51.689 0.86301c-0.34288 6e-3 -0.66988 0.14624-0.91209 0.38913l-40.437 42.308c-0.51669 0.51666 42.308-40.439 42.308-40.439 0.5155-0.51643 0.5155-1.3527 0-1.8692-0.25358-0.25437-0.59993-0.39516-0.95914-0.38913zm2.6934 7.2953c-0.34198 6e-3 -0.66803 0.14484-0.91003 0.38657l-33.147 35.016c-0.5168 0.51666 35.018-33.144 35.018-33.144 0.51683-0.51666 0.51683-1.3546 0-1.8712-0.25437-0.25417-0.60159-0.39361-0.9612-0.38657zm2.0315 5.498c-0.34191 6e-3 -0.66806 0.14487-0.91006 0.38657l-27.649 29.518c-0.5168 0.51666 29.519-27.646 29.519-27.646 0.51679-0.51666 0.51679-1.3546 0-1.8712-0.2544-0.25417-0.60107-0.39363-0.96067-0.38657zm-61.621 1.539c-0.3419 6e-3 -0.66804 0.14483-0.91003 0.38653l-49.816 51.688c-0.5168 0.51663 51.687-49.817 51.687-49.817 0.51682-0.51666 0.51682-1.3546 0-1.8713-0.25438-0.25419-0.6016-0.39362-0.9612-0.38653zm4.1058 3.4236c-0.34201 6e-3 -0.66856 0.14534-0.91056 0.38707l-48.724 50.598c-0.5168 0.51667 50.595-48.727 50.595-48.727 0.5168-0.51667 0.5168-1.3541 0-1.8707-0.2544-0.25414-0.60109-0.39411-0.9607-0.38707zm9.9882 0c-0.34201 6e-3 -0.66804 0.14534-0.91003 0.38707l-48.727 50.598c-0.5168 0.51667 50.598-48.727 50.598-48.727 0.5168-0.51667 0.5168-1.3541 0-1.8707-0.2544-0.25414-0.60109-0.39411-0.9607-0.38707zm7.5294 0c-0.34198 6e-3 -0.66854 0.14534-0.91056 0.38707l-22.683 24.555c-0.51682 0.51666 24.555-22.684 24.555-22.684 0.5168-0.51667 0.5168-1.3541 0-1.8707-0.2544-0.25414-0.60109-0.39411-0.9607-0.38707zm42.691 2.3301c-0.34201 6e-3 -0.66857 0.14537-0.91059 0.38707l-23.697 25.568c-0.5168 0.51664 25.568-23.697 25.568-23.697 0.51679-0.51664 0.51679-1.3541 0-1.8707-0.25441-0.25414-0.6011-0.3941-0.96067-0.38707zm2.0309 5.498c-0.34219 7e-3 -0.66832 0.14621-0.91002 0.38862l-23.808 25.678c-0.51682 0.51666 25.68-23.807 25.68-23.807 0.51683-0.51666 0.51683-1.3546 0-1.8713-0.25408-0.25488-0.60127-0.39516-0.9612-0.38862zm2.6955 7.2953c-0.34259 6e-3 -0.6696 0.14439-0.91209 0.38654l-23.955 25.826c-0.51682 0.51666 25.826-23.955 25.826-23.955 0.5168-0.51666 0.5168-1.3546 0-1.8712-0.25398-0.25364-0.60022-0.39307-0.95913-0.38654zm2.0294 5.498c-0.3419 6e-3 -0.66806 0.14486-0.91006 0.38654l-24.067 25.938c-0.5168 0.51667 25.938-24.066 25.938-24.066 0.51679-0.51666 0.51679-1.3546 0-1.8712-0.2544-0.25417-0.6011-0.39363-0.96067-0.38654zm2.695 7.2927c-0.3423 7e-3 -0.66835 0.14619-0.91005 0.38863l-20.812 22.682c-0.5168 0.51667 22.683-20.813 22.683-20.813 0.5155-0.51643 0.5155-1.3527 0-1.8692-0.25408-0.25488-0.60141-0.39516-0.9612-0.38863zm2.0314 5.498c-0.3423 7e-3 -0.66833 0.14619-0.91003 0.38863l-15.313 17.184c-0.5168 0.51667 17.183-15.313 17.183-15.313 0.51679-0.51666 0.51679-1.3546 0-1.8712-0.25412-0.25488-0.60089-0.39516-0.9607-0.38863zm-88.773 1.1876c-0.34201 6e-3 -0.66806 0.14534-0.91006 0.38707l-14.127 15.998c-0.5168 0.51667 15.998-14.127 15.998-14.127 0.5168-0.51666 0.5168-1.3541 0-1.8707-0.2544-0.25417-0.60107-0.39414-0.96067-0.38707zm91.467 6.1078c-0.34198 6e-3 -0.66804 0.14481-0.91003 0.38654l-8.0188 9.8906c-0.51679 0.51667 9.8896-8.0193 9.8896-8.0193 0.51679-0.51666 0.51679-1.3546 0-1.8712-0.25441-0.25414-0.6012-0.39361-0.9607-0.38654zm2.0309 5.498c-0.3419 6e-3 -0.66803 0.14483-0.91005 0.38654l-2.5203 4.3926c-0.51683 0.51667 4.3915-2.5214 4.3915-2.5214 0.5168-0.51666 0.5168-1.3546 0-1.8712-0.2544-0.25414-0.6017-0.39361-0.9612-0.38654zm-65.271 28.752c-0.34889 3e-3 -0.68296 0.14084-0.92966 0.38757l-65.316 67.187c-0.5165 0.51663 67.187-65.316 67.187-65.316 0.5169-0.51669 0.5169-1.3546 0-1.8712-0.24959-0.24964-0.58855-0.38919-0.94157-0.38757zm7.3041 0.2253c-0.34889 3e-3 -0.68298 0.14086-0.92969 0.38759l-72.419 74.29c-0.5168 0.51669 74.29-72.418 74.29-72.418 0.5169-0.51669 0.5169-1.3546 0-1.8713-0.24959-0.24964-0.58855-0.38918-0.94157-0.38759zm-17.876 0.35918c-0.34889 3e-3 -0.68298 0.14084-0.92969 0.38757l-54.06 55.931c-0.5165 0.51661 55.931-54.06 55.931-54.06 0.51648-0.51661 0.51648-1.3541 0-1.8707-0.24951-0.24951-0.58826-0.38903-0.94106-0.38757zm26.821 0.6842c-0.34891 3e-3 -0.68298 0.14084-0.92969 0.38757l-25.487 27.358c-0.51658 0.51664 27.358-25.487 27.358-25.487 0.5165-0.51661 0.5165-1.3541 0-1.8708-0.2494-0.24951-0.58826-0.38903-0.94104-0.38757zm-36.029 0.99427c-0.34891 3e-3 -0.68298 0.14087-0.92969 0.3876l-43.125 44.996c-0.5165 0.51664 44.996-43.125 44.996-43.125 0.5165-0.51661 0.5165-1.3541 0-1.8707-0.24948-0.24951-0.58824-0.38905-0.94104-0.3876zm42.393 0.17053c-0.34889 3e-3 -0.68296 0.14087-0.92966 0.3876l-21.751 23.621c-0.5165 0.51661 23.621-21.751 23.621-21.751 0.5165-0.51661 0.5165-1.3541 0-1.8707-0.24951-0.24951-0.58826-0.38903-0.94106-0.3876zm7.8323 2.1555c-0.34889 3e-3 -0.68309 0.14086-0.92969 0.38759l-19.657 21.527c-0.5169 0.51666 21.527-19.657 21.527-19.657 0.5165-0.51661 0.5165-1.3541 0-1.8707-0.24938-0.24951-0.58824-0.38905-0.94104-0.38759zm5.467 2.063c-0.34889 3e-3 -0.68298 0.14053-0.92969 0.38707l-18.977 20.848c-0.5165 0.51664 20.848-18.977 20.848-18.977 0.51691-0.51669 0.51691-1.3546 0-1.8712-0.2495-0.24932-0.58836-0.38866-0.94106-0.38707zm-72.019 1.9493c-0.34889 3e-3 -0.68298 0.14085-0.92969 0.38757l-20.235 22.106c-0.5165 0.51661 22.106-20.235 22.106-20.235 0.51648-0.51658 0.51648-1.3541 0-1.8707-0.24951-0.2495-0.58826-0.38902-0.94106-0.38757zm78.947 1.11c-0.34881 3e-3 -0.68306 0.14084-0.92969 0.38757l-18.793 20.664c-0.5165 0.51664 20.664-18.793 20.664-18.793 0.5165-0.51664 0.5165-1.3541 0-1.8708-0.24959-0.24964-0.58855-0.38916-0.94157-0.38757zm2.2418 5.2876c-0.34892 3e-3 -0.68299 0.14084-0.92969 0.38757l-16.18 18.05c-0.51661 0.51664 18.051-16.18 18.051-16.18 0.51648-0.51661 0.51648-1.3541 0-1.8707-0.24961-0.24964-0.58858-0.38918-0.94156-0.38757zm0 9.9882c-0.34892 3e-3 -0.68299 0.14084-0.92969 0.38757l-10.218 12.089c-0.51651 0.51661 12.089-10.218 12.089-10.218 0.51651-0.51662 0.51651-1.3541 0-1.8707-0.2495-0.24951-0.58823-0.38903-0.94103-0.38757zm0 7.5294c-0.34892 3e-3 -0.68299 0.14086-0.92969 0.38759l-5.9915 7.8622c-0.51651 0.51661 7.8622-5.9915 7.8622-5.9915 0.51651-0.51661 0.51651-1.3541 0-1.8707-0.2495-0.24953-0.58823-0.38905-0.94103-0.38759zm-72.712 12.631c-0.34889 3e-3 -0.68298 0.14087-0.92966 0.3876l-36.497 38.368c-0.5165 0.51663 38.368-36.497 38.368-36.497 0.51648-0.51661 0.51648-1.3541 0-1.8707-0.2494-0.24951-0.58826-0.38903-0.94106-0.3876zm-3.2376 10.767c-0.34891 3e-3 -0.68298 0.14084-0.92969 0.38757l-31.954 33.825c-0.51648 0.51661 33.825-31.954 33.825-31.954 0.5165-0.51661 0.5165-1.3541 0-1.8708-0.2494-0.24951-0.58824-0.38903-0.94104-0.38757zm-0.86611 10.854c-0.34891 3e-3 -0.68298 0.14084-0.92969 0.38757l-28.687 30.557c-0.5165 0.51662 30.558-28.687 30.558-28.687 0.51661-0.51661 0.51661-1.3541 0-1.8707-0.24948-0.24964-0.58855-0.38919-0.94154-0.38757zm0.32246 7.207c-0.34881 3e-3 -0.68309 0.14084-0.92969 0.38757l-26.698 28.568c-0.51651 0.51661 28.568-26.698 28.568-26.698 0.5165-0.51661 0.5165-1.3541 0-1.8707-0.24948-0.24951-0.58813-0.38905-0.94104-0.38757zm1.4454 8.5423c-0.34891 3e-3 -0.68309 0.14087-0.92969 0.3876l-24.498 26.369c-0.51648 0.51664 26.369-24.498 26.369-24.498 0.5165-0.51661 0.5165-1.3541 0-1.8707-0.24961-0.24964-0.58866-0.38919-0.94157-0.3876zm1.9441 5.5858c-0.34881 3e-3 -0.68298 0.1405-0.92969 0.38704l-23.256 25.127c-0.51682 0.51669 25.127-23.255 25.127-23.255 0.5169-0.51666 0.5169-1.3546 0-1.8713-0.24951-0.24932-0.58834-0.38865-0.94104-0.38704zm3.5094 6.4783c-0.3491 3e-3 -0.68338 0.14073-0.93019 0.38759l-21.935 23.806c-0.5165 0.51664 23.806-21.935 23.806-21.935 0.51648-0.51661 0.51648-1.3541 0-1.8707-0.2494-0.2495-0.58826-0.38905-0.94106-0.38759zm69.594 0.47491c-0.34892 3e-3 -0.68299 0.14086-0.92969 0.38759l-37.674 39.545c-0.51661 0.51663 39.545-37.674 39.545-37.674 0.51651-0.51661 0.51651-1.3541 0-1.8707-0.2495-0.2495-0.58823-0.38902-0.94103-0.38759zm-66.212 3.6722c-0.34889 3e-3 -0.68298 0.14084-0.92966 0.38757l-21.252 23.123c-0.5165 0.51664 23.123-21.252 23.123-21.252 0.5165-0.51661 0.5165-1.3541 0-1.8707-0.2494-0.24951-0.58826-0.38905-0.94106-0.38757zm49.238 3.3136c-0.34889 3e-3 -0.68298 0.14084-0.92966 0.38757l-30.795 32.665c-0.51648 0.51661 32.666-30.795 32.666-30.795 0.5165-0.51661 0.5165-1.3541 0-1.8707-0.24959-0.24964-0.58855-0.38916-0.94157-0.38757zm16.974 0.54365c-0.34892 3e-3 -0.68299 0.14084-0.92969 0.38757l-29.338 31.209c-0.51661 0.51664 31.209-29.338 31.209-29.338 0.51651-0.51661 0.51651-1.3541 0-1.8707-0.2495-0.24951-0.58823-0.38902-0.94103-0.38757zm-60.754 0.67277c-0.34881 3e-3 -0.68298 0.14053-0.92969 0.38707l-20.706 22.576c-0.51648 0.51664 22.576-20.705 22.576-20.705 0.5169-0.51669 0.5169-1.3546 0-1.8712-0.24948-0.24932-0.58834-0.38868-0.94104-0.38707zm4.8644 2.6645c-0.34889 3e-3 -0.68296 0.14086-0.92966 0.38759l-20.603 22.474c-0.51658 0.51658 22.474-20.603 22.474-20.603 0.5165-0.51661 0.5165-1.3541 0-1.8707-0.2494-0.24953-0.58826-0.38905-0.94106-0.38759zm25.747 1.7576c-0.34891 3e-3 -0.68298 0.14084-0.92969 0.38757l-24.65 26.521c-0.5165 0.51663 26.521-24.65 26.521-24.65 0.5165-0.51661 0.5165-1.3541 0-1.8707-0.24961-0.24964-0.58858-0.38916-0.94157-0.38757zm-18.031 0.51417c-0.34891 3e-3 -0.68298 0.14087-0.92969 0.3876l-21.09 22.961c-0.5168 0.51667 22.961-21.09 22.961-21.09 0.5165-0.51661 0.5165-1.3541 0-1.8707-0.24951-0.24951-0.58826-0.38905-0.94104-0.3876zm6.7713 0.75813c-0.34891 3e-3 -0.68298 0.14084-0.92969 0.38757l-21.93 23.801c-0.5169 0.51666 23.802-21.93 23.802-21.93 0.51661-0.51661 0.51661-1.3541 0-1.8707-0.24948-0.24964-0.58855-0.38918-0.94154-0.38757zm41.403 3.62c-0.34892 3e-3 -0.68299 0.14086-0.92969 0.38759l-16.142 18.012c-0.5169 0.51669 18.013-16.141 18.013-16.141 0.51651-0.51661 0.51651-1.3541 0-1.8707-0.2495-0.24951-0.58823-0.38905-0.94103-0.38759zm0 7.5294c-0.34892 3e-3 -0.68299 0.14084-0.92969 0.38757l-3.7962 5.667c-0.51648 0.51661 5.667-3.7962 5.667-3.7962 0.51651-0.51661 0.51651-1.3541 0-1.8707-0.2495-0.24951-0.58823-0.38905-0.94103-0.38757zm-102.19 37.665c-0.34878 3e-3 -0.68306 0.14087-0.92966 0.3876l-1.463 3.3342c-0.5168 0.51669 3.3342-1.463 3.3342-1.463 0.51682-0.51669 0.51682-1.3545 0-1.8712-0.24959-0.24964-0.58855-0.38919-0.94157-0.3876zm9.9882 0c-0.34889 3e-3 -0.68296 0.14087-0.92966 0.3876l-11.452 13.322c-0.5165 0.51663 13.322-11.452 13.322-11.452 0.5165-0.51661 0.5165-1.3541 0-1.8707-0.2494-0.24951-0.58826-0.38905-0.94106-0.3876zm7.5294 0c-0.34891 3e-3 -0.68298 0.14087-0.92969 0.3876l-18.981 20.852c-0.5165 0.51664 20.852-18.981 20.852-18.981 0.5165-0.51661 0.5165-1.3541 0-1.8707-0.24951-0.24951-0.58824-0.38905-0.94104-0.3876zm9.9877 0c-0.34889 3e-3 -0.68298 0.14087-0.92966 0.3876l-23.982 25.853c-0.5165 0.51666 25.853-23.982 25.853-23.982 0.5165-0.51661 0.5165-1.3541 0-1.8707-0.24959-0.24964-0.58855-0.38919-0.94157-0.3876zm7.5299 0c-0.34899 0-0.68338 0.14042-0.93019 0.38707l-23.982 25.853c-0.51658 0.51666 25.853-23.982 25.853-23.982 0.5169-0.51669 0.5169-1.3546 0-1.8712-0.24948-0.24932-0.58834-0.38866-0.94104-0.38707zm9.9872 0c-0.34889 3e-3 -0.68298 0.14087-0.92969 0.3876l-23.982 25.853c-0.5169 0.51669 25.853-23.982 25.853-23.982 0.5169-0.51669 0.5169-1.3545 0-1.8712-0.24938-0.24951-0.58824-0.38905-0.94104-0.3876zm7.5294 0c-0.34889 3e-3 -0.68296 0.14087-0.92966 0.3876l-23.982 25.853c-0.5165 0.51666 25.853-23.982 25.853-23.982 0.5168-0.51669 0.5168-1.3545 0-1.8712-0.24951-0.24951-0.58826-0.38905-0.94106-0.3876zm9.9882 0c-0.34889 3e-3 -0.68306 0.14087-0.92966 0.3876l-23.982 25.853c-0.51661 0.51666 25.853-23.982 25.853-23.982 0.5165-0.51661 0.5165-1.3541 0-1.8707-0.2494-0.24951-0.58826-0.38905-0.94106-0.3876zm7.5294 0c-0.34891 3e-3 -0.68298 0.14087-0.92969 0.3876l-31.302 33.173c-0.51661 0.51664 33.173-31.302 33.173-31.302 0.5165-0.51661 0.5165-1.3541 0-1.8707-0.2494-0.24951-0.58824-0.38905-0.94104-0.3876zm9.9877 0c-0.34881 3e-3 -0.68288 0.14053-0.92969 0.38707l-41.29 43.161c-0.5169 0.51669 43.161-41.29 43.161-41.29 0.5168-0.51669 0.5168-1.3546 0-1.8712-0.24969-0.24946-0.58866-0.38881-0.94157-0.38707zm7.5294 0c-0.34878 3e-3 -0.68288 0.14053-0.92966 0.38707l-48.819 50.691c-0.51661 0.51667 50.691-48.819 50.691-48.819 0.51682-0.51669 0.51682-1.3546 0-1.8712-0.24969-0.24946-0.58866-0.38881-0.94157-0.38707zm9.9877 0c-0.34891 3e-3 -0.68298 0.14087-0.92968 0.3876l-23.982 25.853c-0.51688 0.51669 25.853-23.982 25.853-23.982 0.51651-0.51661 0.51651-1.3541 0-1.8707-0.2494-0.24951-0.58823-0.38905-0.94104-0.3876zm7.5294 0c-0.34889 3e-3 -0.68298 0.14087-0.92969 0.3876l-23.982 25.853c-0.5165 0.51661 25.853-23.982 25.853-23.982 0.51647-0.51661 0.51647-1.3541 0-1.8707-0.24941-0.24951-0.58827-0.38905-0.94107-0.3876zm6.1822 3.8061c-0.34891 3e-3 -0.68299 0.14086-0.92969 0.38757l-20.176 22.047c-0.51651 0.51661 22.047-20.176 22.047-20.176 0.5165-0.51661 0.5165-1.3541 0-1.8707-0.2494-0.24951-0.58826-0.38903-0.94104-0.38757zm0 7.5294c-0.3491 3e-3 -0.68341 0.14071-0.93022 0.3876l-12.646 14.517c-0.5165 0.51661 14.517-12.647 14.517-12.647 0.5165-0.51661 0.5165-1.3541 0-1.8707-0.2494-0.24951-0.58826-0.38905-0.94104-0.3876zm0 9.9878c-0.34881 3e-3 -0.68288 0.14052-0.92969 0.38706l-2.6588 4.5295c-0.51683 0.51669 4.5295-2.6583 4.5295-2.6583 0.5169-0.51669 0.5169-1.3545 0-1.8712-0.24951-0.24932-0.58834-0.38865-0.94104-0.38706zm-40.231 5.1962c-0.34891 3e-3 -0.68298 0.14087-0.92969 0.3876l-32.288 34.159c-0.5165 0.51664 34.158-32.288 34.158-32.288 0.5165-0.51661 0.5165-1.3541 0-1.8707-0.2494-0.24951-0.58824-0.38903-0.94104-0.3876zm0 7.5294c-0.34891 3e-3 -0.68298 0.14084-0.92969 0.38757l-32.288 34.159c-0.5165 0.51664 34.158-32.288 34.158-32.288 0.5165-0.51661 0.5165-1.3541 0-1.8707-0.2494-0.2495-0.58824-0.38905-0.94104-0.38757zm0 9.9882c-0.34891 3e-3 -0.68298 0.14084-0.92969 0.38757l-32.288 34.158c-0.5169 0.51666 34.158-32.287 34.158-32.287 0.5165-0.51662 0.5165-1.3541 0-1.8707-0.2494-0.24951-0.58824-0.38903-0.94104-0.38757zm0 7.5294c-0.3491 3e-3 -0.68341 0.14071-0.93019 0.38757l-32.287 34.158c-0.5169 0.51666 34.158-32.287 34.158-32.287 0.51661-0.51661 0.51661-1.3541 0-1.8708-0.2494-0.24951-0.58824-0.38903-0.94104-0.38757zm0 9.9877c-0.34891 3e-3 -0.68298 0.14087-0.92969 0.3876l-32.288 34.158c-0.51661 0.5166 34.158-32.288 34.158-32.288 0.5165-0.51662 0.5165-1.3541 0-1.8707-0.2494-0.24951-0.58824-0.38905-0.94104-0.3876zm0 7.5294c-0.34891 3e-3 -0.68298 0.14084-0.92969 0.38757l-32.288 34.158c-0.51661 0.5166 34.158-32.288 34.158-32.288 0.5165-0.51661 0.5165-1.3541 0-1.8707-0.2494-0.24951-0.58824-0.38903-0.94104-0.38757zm0 9.9877c-0.34891 3e-3 -0.68298 0.14087-0.92969 0.3876l-32.288 34.158c-0.5169 0.5167 34.158-32.288 34.158-32.288 0.5165-0.51661 0.5165-1.3541 0-1.8707-0.2494-0.24951-0.58824-0.38905-0.94104-0.3876zm0 7.53c-0.34902 0-0.6833 0.14039-0.93019 0.38707l-32.287 34.158c-0.5169 0.5167 34.158-32.287 34.158-32.287 0.5169-0.51669 0.5169-1.3546 0-1.8712-0.24951-0.24932-0.58834-0.38866-0.94104-0.38707zm0 9.9872c-0.34891 0-0.68298 0.1409-0.92969 0.3876l-31.302 33.172c-0.5169 0.5167 33.172-31.301 33.172-31.301 0.5169-0.5166 0.5169-1.3545 0-1.8712-0.2494-0.2495-0.58824-0.389-0.94104-0.3876zm0 7.5294c-0.34891 0-0.68298 0.1409-0.92969 0.3876l-23.772 25.643c-0.5165 0.5166 25.643-23.772 25.643-23.772 0.5165-0.5166 0.5165-1.3542 0-1.8708-0.2494-0.2495-0.58824-0.389-0.94104-0.3876zm0 9.9883c-0.3491 0-0.68341 0.1407-0.93019 0.3876l-13.783 15.655c-0.51661 0.5166 15.655-13.784 15.655-13.784 0.5165-0.5166 0.5165-1.3541 0-1.8707-0.2494-0.2495-0.58824-0.389-0.94104-0.3876zm0 7.5294c-0.3491 0-0.68341 0.1407-0.93019 0.3876l-6.254 8.1253c-0.51658 0.5166 8.1253-6.2546 8.1253-6.2546 0.5165-0.5166 0.5165-1.3541 0-1.8707-0.2494-0.2495-0.58824-0.3891-0.94104-0.3876z" style="color-rendering:auto;color:#000000;dominant-baseline:auto;fill:url(#linearGradient3848);font-feature-settings:normal;font-variant-alternates:normal;font-variant-caps:normal;font-variant-east-asian:normal;font-variant-ligatures:normal;font-variant-numeric:normal;font-variant-position:normal;font-variation-settings:normal;image-rendering:auto;inline-size:0;isolation:auto;mix-blend-mode:normal;shape-margin:0;shape-padding:0;shape-rendering:auto;solid-color:#000000;stop-color:#000000;text-decoration-color:#000000;text-decoration-line:none;text-decoration-style:solid;text-indent:0;text-orientation:mixed;text-transform:none;white-space:normal"/>
</svg>
